HIERARCHY
ROOT Hips
{
	OFFSET 0.000000 0.000000 0.000000
	CHANNELS 6 Xposition Yposition Zposition Zrotation Yrotation Xrotation 
	JOINT LHipJoint
	{
		OFFSET 0.000000 0.000000 0.000000
		CHANNELS 3 Zrotation Yrotation Xrotation
		JOINT LeftUpLeg
		{
			OFFSET 1.363060 -1.794630 0.839290
			CHANNELS 3 Zrotation Yrotation Xrotation
			JOINT LeftLeg
			{
				OFFSET 2.448110 -6.726130 0.000000
				CHANNELS 3 Zrotation Yrotation Xrotation
				JOINT LeftFoot
				{
					OFFSET 2.562200 -7.039590 0.000000
					CHANNELS 3 Zrotation Yrotation Xrotation
					JOINT LeftToeBase
					{
						OFFSET 0.157640 -0.433110 2.322550
						CHANNELS 3 Zrotation Yrotation Xrotation
						End Site
						{
							OFFSET 0.000000 0.000000 0.000000
						}
					}
				}
			}
		}
	}
	JOINT RHipJoint
	{
		OFFSET 0.000000 0.000000 0.000000
		CHANNELS 3 Zrotation Yrotation Xrotation
		JOINT RightUpLeg
		{
			OFFSET -1.305520 -1.794630 0.839290
			CHANNELS 3 Zrotation Yrotation Xrotation
			JOINT RightLeg
			{
				OFFSET -2.542530 -6.985550 0.000000
				CHANNELS 3 Zrotation Yrotation Xrotation
				JOINT RightFoot
				{
					OFFSET -2.568260 -7.056230 0.000000
					CHANNELS 3 Zrotation Yrotation Xrotation
					JOINT RightToeBase
					{
						OFFSET -0.164730 -0.452590 2.363150
						CHANNELS 3 Zrotation Yrotation Xrotation
						End Site
						{
							OFFSET 0.000000 0.000000 0.000000
						}
					}
				}
			}
		}
	}
}
MOTION
Frames: 13
Frame Time: 0.008333
-8.429240 17.032674 -1.373522 -5.416331 83.101973 -0.694748 -9.759326 1.722328 1.921254 -19.184774 7.599893 -29.989762 -2.810028 0.066421 19.561319 1.737618 7.885362 -11.166958 -0.493500 0.000000 -18.373300 10.890436 -3.232691 -2.697362 -5.059036 -23.240313 -0.945824 -0.680906 -2.488152 39.890128 -2.026857 -7.139555 28.688605 -3.401900 -0.000001 -69.463000
-8.180636 16.978835 -1.372343 -4.644242 82.929259 -0.223018 -9.838586 1.738540 1.859412 -18.950750 7.269221 -29.706208 -2.708038 0.269167 21.681740 1.698101 7.682577 -11.453498 -0.549300 0.000000 -15.855400 10.951360 -3.057831 -2.823240 -5.544331 -23.541053 -2.251416 -0.742367 -2.622651 42.720486 -2.130384 -8.020720 27.698278 -3.777101 -0.000000 -65.731100
-7.934715 16.922619 -1.369515 -3.603700 82.735670 0.590516 -9.905464 1.765649 1.773012 -18.866931 7.100367 -29.590682 -2.620917 0.471119 23.906033 1.680139 7.547150 -11.918439 -0.633500 0.000000 -13.244500 11.000296 -2.892792 -2.905191 -5.879330 -23.659763 -3.757480 -0.794527 -2.772316 45.405593 -2.183175 -8.758595 25.922265 -3.984099 0.000000 -62.539700
-7.691756 16.866009 -1.365196 -2.360836 82.527930 1.685842 -9.957414 1.798008 1.672665 -18.905104 7.031956 -29.585733 -2.545338 0.662342 26.130422 1.692648 7.533578 -12.566820 -0.750600 -0.000001 -10.719500 11.039939 -2.736977 -2.941463 -6.048480 -23.577367 -5.455620 -0.838703 -2.932495 47.906092 -2.186667 -9.300648 23.441625 -3.987800 0.000000 -59.884201
-7.451815 16.810949 -1.359522 -0.957608 82.312568 3.021956 -9.992354 1.830854 1.567047 -19.041036 7.002695 -29.628734 -2.479595 0.835420 28.264692 1.740804 7.673872 -13.395060 -0.907300 -0.000001 -8.433001 11.072586 -2.587451 -2.931795 -6.055225 -23.280676 -7.321284 -0.870918 -3.096123 50.181907 -2.145121 -9.620380 20.361914 -3.786600 -0.000000 -57.634100
-7.214914 16.759225 -1.352755 0.555483 82.095274 4.542241 -10.009450 1.860271 1.461814 -19.249942 6.964212 -29.657242 -2.423104 0.985176 30.235769 1.825445 7.972845 -14.389825 -1.110500 -0.000000 -6.490000 11.099754 -2.440391 -2.876191 -5.915237 -22.759864 -9.313698 -0.884088 -3.254722 52.191885 -2.067367 -9.725039 16.821668 -3.413500 -0.000000 -55.684401
-6.980904 16.712295 -1.345163 2.142800 81.881294 6.198995 -10.008579 1.883831 1.358779 -19.511340 6.885727 -29.610613 -2.376521 1.108238 31.983117 1.942974 8.409460 -15.523604 -1.364500 -0.000000 -4.961600 11.122714 -2.290496 -2.777896 -5.661774 -22.021072 -11.381423 -0.870391 -3.400607 53.902971 -1.965669 -9.642922 12.972949 -2.919901 -0.000000 -53.832300
-6.749474 16.671466 -1.337123 3.733123 81.673653 7.904347 -9.991245 1.900484 1.257735 -19.801279 6.758017 -29.436985 -2.340602 1.202595 33.460827 2.086186 8.944054 -16.757566 -1.668801 -0.000000 -3.868400 11.141604 -2.133307 -2.640133 -5.327747 -21.079265 -13.470857 -0.825031 -3.526834 55.289563 -1.857349 -9.433974 8.995958 -2.370300 0.000001 -52.009100
-6.520123 16.637580 -1.329069 5.257582 81.475555 9.571637 -9.959757 1.910854 1.156894 -20.097600 6.587899 -29.095602 -2.316331 1.267625 34.634942 2.244983 9.525640 -18.042182 -2.015100 0.000000 -3.200100 11.155863 -1.964616 -2.469354 -4.947233 -19.968717 -15.534308 -0.748086 -3.628984 56.342616 -1.760939 -9.171558 5.064884 -1.820500 0.000000 -50.136700
-6.292226 16.611253 -1.321494 6.632412 81.289695 11.098275 -9.917949 1.917164 1.055087 -20.377657 6.396971 -28.560630 -2.304267 1.303802 35.484274 2.407670 10.100674 -19.322378 -2.387500 -0.000001 -2.910100 11.163426 -1.782832 -2.272512 -4.542555 -18.736418 -17.535748 -0.645229 -3.704712 57.067715 -1.693910 -8.937305 1.337709 -1.309600 -0.000000 -48.228100
-6.065033 16.592668 -1.314888 7.788997 81.120202 12.400745 -9.870458 1.922668 0.951847 -20.621876 6.213136 -27.822708 -2.304679 1.312720 36.000285 2.562324 10.619279 -20.543543 -2.763600 -0.000000 -2.926100 11.161189 -1.588368 -2.058746 -4.123936 -17.442623 -19.454271 -0.525495 -3.753986 57.484931 -1.669011 -8.803356 -2.068907 -0.853700 -0.000001 -46.336400
-5.837732 16.581805 -1.309681 8.672683 80.973953 13.413027 -9.822753 1.931090 0.848790 -20.813219 6.065540 -26.886850 -2.317079 1.296506 36.185529 2.698377 11.041924 -21.656427 -3.118200 -0.000000 -3.157700 11.145071 -1.384600 -1.837726 -3.688211 -16.154942 -21.281026 -0.397955 -3.778210 57.622228 -1.692543 -8.819704 -5.090875 -0.450100 0.000000 -44.522800
-5.609481 16.578324 -1.306227 9.252130 80.860943 14.097259 -9.780350 1.945896 0.749118 -20.938637 5.978505 -25.770528 -2.340243 1.257708 36.053598 2.807741 11.342209 -22.621946 -3.427600 0.000001 -3.509700 11.110756 -1.176595 -1.619835 -3.220865 -14.943410 -23.017548 -0.268839 -3.779703 57.511047 -1.764525 -9.006756 -7.716733 -0.085399 0.000000 -42.821000
